<mxfile host="app.diagrams.net" modified="2023-08-14T07:17:55.428Z" agent="Mozilla/5.0 (Windows NT 10.0; Win64; x64) AppleWebKit/537.36 (KHTML, like Gecko) Chrome/115.0.0.0 Safari/537.36" etag="xVIStX_FiGGvqSgXqTwJ" version="21.6.8" type="github">
  <diagram name="Page-1" id="u9zzReYskYPbnjBxVrct">
    <mxGraphModel dx="1050" dy="573" grid="1" gridSize="10" guides="1" tooltips="1" connect="1" arrows="1" fold="1" page="1" pageScale="1" pageWidth="850" pageHeight="1100" math="0" shadow="0">
      <root>
        <mxCell id="0" />
        <mxCell id="1" parent="0" />
        <mxCell id="ntjXVA0GMSHedG_WwRod-26" style="edgeStyle=orthogonalEdgeStyle;rounded=0;orthogonalLoop=1;jettySize=auto;html=1;entryX=0.5;entryY=0;entryDx=0;entryDy=0;" parent="1" source="ntjXVA0GMSHedG_WwRod-1" target="ntjXVA0GMSHedG_WwRod-2" edge="1">
          <mxGeometry relative="1" as="geometry" />
        </mxCell>
        <mxCell id="ntjXVA0GMSHedG_WwRod-1" value="" style="ellipse;whiteSpace=wrap;html=1;aspect=fixed;fillColor=#000033;" parent="1" vertex="1">
          <mxGeometry x="130" y="40" width="30" height="30" as="geometry" />
        </mxCell>
        <mxCell id="ntjXVA0GMSHedG_WwRod-27" style="edgeStyle=orthogonalEdgeStyle;rounded=0;orthogonalLoop=1;jettySize=auto;html=1;entryX=0;entryY=0.5;entryDx=0;entryDy=0;" parent="1" source="ntjXVA0GMSHedG_WwRod-2" target="ntjXVA0GMSHedG_WwRod-4" edge="1">
          <mxGeometry relative="1" as="geometry" />
        </mxCell>
        <mxCell id="ntjXVA0GMSHedG_WwRod-2" value="&lt;h1&gt;Homepage&lt;/h1&gt;" style="rounded=1;whiteSpace=wrap;html=1;" parent="1" vertex="1">
          <mxGeometry x="77.5" y="140" width="135" height="40" as="geometry" />
        </mxCell>
        <mxCell id="ntjXVA0GMSHedG_WwRod-28" style="edgeStyle=orthogonalEdgeStyle;rounded=0;orthogonalLoop=1;jettySize=auto;html=1;entryX=0;entryY=0.5;entryDx=0;entryDy=0;" parent="1" source="ntjXVA0GMSHedG_WwRod-4" target="ntjXVA0GMSHedG_WwRod-5" edge="1">
          <mxGeometry relative="1" as="geometry" />
        </mxCell>
        <mxCell id="ntjXVA0GMSHedG_WwRod-4" value="&lt;h1 style=&quot;line-height: 60%;&quot;&gt;Search&lt;/h1&gt;&lt;h1 style=&quot;line-height: 60%;&quot;&gt;Product&lt;/h1&gt;" style="rounded=1;whiteSpace=wrap;html=1;" parent="1" vertex="1">
          <mxGeometry x="270" y="130" width="130" height="60" as="geometry" />
        </mxCell>
        <mxCell id="ntjXVA0GMSHedG_WwRod-29" style="edgeStyle=orthogonalEdgeStyle;rounded=0;orthogonalLoop=1;jettySize=auto;html=1;entryX=0;entryY=0.5;entryDx=0;entryDy=0;" parent="1" edge="1">
          <mxGeometry relative="1" as="geometry">
            <mxPoint x="610" y="159" as="sourcePoint" />
            <mxPoint x="700" y="159" as="targetPoint" />
          </mxGeometry>
        </mxCell>
        <mxCell id="ntjXVA0GMSHedG_WwRod-58" value="&lt;h2 style=&quot;line-height: 0%;&quot;&gt;&lt;font style=&quot;font-size: 24px;&quot; face=&quot;Comic Sans MS&quot;&gt;yes&lt;/font&gt;&lt;/h2&gt;" style="edgeLabel;html=1;align=center;verticalAlign=middle;resizable=0;points=[];" parent="ntjXVA0GMSHedG_WwRod-29" vertex="1" connectable="0">
          <mxGeometry x="-0.1644" y="-2" relative="1" as="geometry">
            <mxPoint y="-22" as="offset" />
          </mxGeometry>
        </mxCell>
        <mxCell id="ntjXVA0GMSHedG_WwRod-30" style="edgeStyle=orthogonalEdgeStyle;rounded=0;orthogonalLoop=1;jettySize=auto;html=1;entryX=0.5;entryY=1;entryDx=0;entryDy=0;" parent="1" source="ntjXVA0GMSHedG_WwRod-5" target="ntjXVA0GMSHedG_WwRod-4" edge="1">
          <mxGeometry relative="1" as="geometry">
            <Array as="points">
              <mxPoint x="535" y="215" />
              <mxPoint x="335" y="215" />
            </Array>
          </mxGeometry>
        </mxCell>
        <mxCell id="ntjXVA0GMSHedG_WwRod-5" value="&lt;h1&gt;found?&lt;/h1&gt;" style="rhombus;whiteSpace=wrap;html=1;" parent="1" vertex="1">
          <mxGeometry x="460" y="125" width="150" height="70" as="geometry" />
        </mxCell>
        <mxCell id="ntjXVA0GMSHedG_WwRod-31" style="edgeStyle=orthogonalEdgeStyle;rounded=0;orthogonalLoop=1;jettySize=auto;html=1;entryX=0.5;entryY=0;entryDx=0;entryDy=0;" parent="1" source="ntjXVA0GMSHedG_WwRod-6" target="ntjXVA0GMSHedG_WwRod-8" edge="1">
          <mxGeometry relative="1" as="geometry">
            <Array as="points">
              <mxPoint x="768" y="210" />
              <mxPoint x="640" y="210" />
            </Array>
          </mxGeometry>
        </mxCell>
        <mxCell id="ntjXVA0GMSHedG_WwRod-32" style="edgeStyle=orthogonalEdgeStyle;rounded=0;orthogonalLoop=1;jettySize=auto;html=1;entryX=0.5;entryY=0;entryDx=0;entryDy=0;" parent="1" source="ntjXVA0GMSHedG_WwRod-6" target="ntjXVA0GMSHedG_WwRod-7" edge="1">
          <mxGeometry relative="1" as="geometry">
            <Array as="points">
              <mxPoint x="768" y="210" />
              <mxPoint x="898" y="210" />
            </Array>
          </mxGeometry>
        </mxCell>
        <mxCell id="ntjXVA0GMSHedG_WwRod-6" value="&lt;h1&gt;Set Action&lt;/h1&gt;" style="rounded=1;whiteSpace=wrap;html=1;" parent="1" vertex="1">
          <mxGeometry x="700" y="140" width="135" height="40" as="geometry" />
        </mxCell>
        <mxCell id="ntjXVA0GMSHedG_WwRod-37" style="edgeStyle=orthogonalEdgeStyle;rounded=0;orthogonalLoop=1;jettySize=auto;html=1;entryX=0.846;entryY=0;entryDx=0;entryDy=0;entryPerimeter=0;" parent="1" source="ntjXVA0GMSHedG_WwRod-7" target="ntjXVA0GMSHedG_WwRod-10" edge="1">
          <mxGeometry relative="1" as="geometry" />
        </mxCell>
        <mxCell id="ntjXVA0GMSHedG_WwRod-7" value="&lt;h1&gt;Buy&lt;/h1&gt;" style="rounded=1;whiteSpace=wrap;html=1;" parent="1" vertex="1">
          <mxGeometry x="860" y="270" width="75" height="40" as="geometry" />
        </mxCell>
        <mxCell id="ntjXVA0GMSHedG_WwRod-8" value="&lt;h1&gt;Cart&lt;/h1&gt;" style="rounded=1;whiteSpace=wrap;html=1;" parent="1" vertex="1">
          <mxGeometry x="600" y="270" width="80" height="40" as="geometry" />
        </mxCell>
        <mxCell id="ntjXVA0GMSHedG_WwRod-34" style="edgeStyle=orthogonalEdgeStyle;rounded=0;orthogonalLoop=1;jettySize=auto;html=1;" parent="1" source="ntjXVA0GMSHedG_WwRod-9" target="ntjXVA0GMSHedG_WwRod-8" edge="1">
          <mxGeometry relative="1" as="geometry" />
        </mxCell>
        <mxCell id="ntjXVA0GMSHedG_WwRod-35" style="edgeStyle=orthogonalEdgeStyle;rounded=0;orthogonalLoop=1;jettySize=auto;html=1;exitX=0;exitY=0.5;exitDx=0;exitDy=0;entryX=0.75;entryY=1;entryDx=0;entryDy=0;" parent="1" source="ntjXVA0GMSHedG_WwRod-9" target="ntjXVA0GMSHedG_WwRod-2" edge="1">
          <mxGeometry relative="1" as="geometry" />
        </mxCell>
        <mxCell id="ntjXVA0GMSHedG_WwRod-36" style="edgeStyle=orthogonalEdgeStyle;rounded=0;orthogonalLoop=1;jettySize=auto;html=1;" parent="1" source="ntjXVA0GMSHedG_WwRod-9" edge="1">
          <mxGeometry relative="1" as="geometry">
            <mxPoint x="639.5999755859375" y="573.8000793457031" as="targetPoint" />
          </mxGeometry>
        </mxCell>
        <mxCell id="ntjXVA0GMSHedG_WwRod-9" value="&lt;h1&gt;cart update?&lt;/h1&gt;" style="rhombus;whiteSpace=wrap;html=1;" parent="1" vertex="1">
          <mxGeometry x="567.5" y="380" width="145" height="130" as="geometry" />
        </mxCell>
        <mxCell id="ntjXVA0GMSHedG_WwRod-38" style="edgeStyle=orthogonalEdgeStyle;rounded=0;orthogonalLoop=1;jettySize=auto;html=1;entryX=0.475;entryY=-0.115;entryDx=0;entryDy=0;entryPerimeter=0;" parent="1" source="ntjXVA0GMSHedG_WwRod-10" target="ntjXVA0GMSHedG_WwRod-11" edge="1">
          <mxGeometry relative="1" as="geometry" />
        </mxCell>
        <mxCell id="ntjXVA0GMSHedG_WwRod-10" value="" style="line;strokeWidth=4;html=1;perimeter=backbonePerimeter;points=[];outlineConnect=0;" parent="1" vertex="1">
          <mxGeometry x="567.5" y="570" width="390" height="10" as="geometry" />
        </mxCell>
        <mxCell id="ntjXVA0GMSHedG_WwRod-39" style="edgeStyle=orthogonalEdgeStyle;rounded=0;orthogonalLoop=1;jettySize=auto;html=1;entryX=0.5;entryY=0;entryDx=0;entryDy=0;" parent="1" source="ntjXVA0GMSHedG_WwRod-11" target="ntjXVA0GMSHedG_WwRod-12" edge="1">
          <mxGeometry relative="1" as="geometry" />
        </mxCell>
        <mxCell id="ntjXVA0GMSHedG_WwRod-11" value="&lt;h1&gt;Get Require Information&lt;/h1&gt;" style="rounded=1;whiteSpace=wrap;html=1;" parent="1" vertex="1">
          <mxGeometry x="610" y="640" width="320" height="40" as="geometry" />
        </mxCell>
        <mxCell id="ntjXVA0GMSHedG_WwRod-40" style="edgeStyle=orthogonalEdgeStyle;rounded=0;orthogonalLoop=1;jettySize=auto;html=1;entryX=0;entryY=0.5;entryDx=0;entryDy=0;" parent="1" source="ntjXVA0GMSHedG_WwRod-12" target="ntjXVA0GMSHedG_WwRod-13" edge="1">
          <mxGeometry relative="1" as="geometry" />
        </mxCell>
        <mxCell id="ntjXVA0GMSHedG_WwRod-41" style="edgeStyle=orthogonalEdgeStyle;rounded=0;orthogonalLoop=1;jettySize=auto;html=1;entryX=1;entryY=0.5;entryDx=0;entryDy=0;" parent="1" source="ntjXVA0GMSHedG_WwRod-12" target="ntjXVA0GMSHedG_WwRod-14" edge="1">
          <mxGeometry relative="1" as="geometry" />
        </mxCell>
        <mxCell id="ntjXVA0GMSHedG_WwRod-12" value="&lt;h1&gt;payment type?&lt;/h1&gt;" style="rhombus;whiteSpace=wrap;html=1;" parent="1" vertex="1">
          <mxGeometry x="640" y="780" width="170" height="90" as="geometry" />
        </mxCell>
        <mxCell id="ntjXVA0GMSHedG_WwRod-55" style="edgeStyle=orthogonalEdgeStyle;rounded=0;orthogonalLoop=1;jettySize=auto;html=1;entryX=0.47;entryY=0.01;entryDx=0;entryDy=0;entryPerimeter=0;" parent="1" source="ntjXVA0GMSHedG_WwRod-13" target="ntjXVA0GMSHedG_WwRod-16" edge="1">
          <mxGeometry relative="1" as="geometry" />
        </mxCell>
        <mxCell id="ntjXVA0GMSHedG_WwRod-13" value="&lt;h1&gt;Cash On Delivery&lt;/h1&gt;" style="rounded=1;whiteSpace=wrap;html=1;" parent="1" vertex="1">
          <mxGeometry x="940" y="805" width="240" height="40" as="geometry" />
        </mxCell>
        <mxCell id="ntjXVA0GMSHedG_WwRod-42" style="edgeStyle=orthogonalEdgeStyle;rounded=0;orthogonalLoop=1;jettySize=auto;html=1;" parent="1" source="ntjXVA0GMSHedG_WwRod-14" edge="1">
          <mxGeometry relative="1" as="geometry">
            <mxPoint x="320" y="825" as="targetPoint" />
          </mxGeometry>
        </mxCell>
        <mxCell id="ntjXVA0GMSHedG_WwRod-14" value="&lt;h1&gt;E-payment&lt;/h1&gt;" style="rounded=1;whiteSpace=wrap;html=1;" parent="1" vertex="1">
          <mxGeometry x="358" y="805" width="135" height="40" as="geometry" />
        </mxCell>
        <mxCell id="ntjXVA0GMSHedG_WwRod-43" style="edgeStyle=orthogonalEdgeStyle;rounded=0;orthogonalLoop=1;jettySize=auto;html=1;" parent="1" source="ntjXVA0GMSHedG_WwRod-15" target="ntjXVA0GMSHedG_WwRod-17" edge="1">
          <mxGeometry relative="1" as="geometry">
            <Array as="points">
              <mxPoint x="248" y="900" />
              <mxPoint x="715" y="900" />
            </Array>
          </mxGeometry>
        </mxCell>
        <mxCell id="ntjXVA0GMSHedG_WwRod-15" value="&lt;h1&gt;Req. Info.&lt;/h1&gt;" style="rounded=1;whiteSpace=wrap;html=1;" parent="1" vertex="1">
          <mxGeometry x="180" y="805" width="135" height="40" as="geometry" />
        </mxCell>
        <mxCell id="ntjXVA0GMSHedG_WwRod-46" style="edgeStyle=orthogonalEdgeStyle;rounded=0;orthogonalLoop=1;jettySize=auto;html=1;" parent="1" source="ntjXVA0GMSHedG_WwRod-16" target="ntjXVA0GMSHedG_WwRod-19" edge="1">
          <mxGeometry relative="1" as="geometry" />
        </mxCell>
        <mxCell id="ntjXVA0GMSHedG_WwRod-16" value="&lt;h1&gt;Sent Order Confirmation&lt;/h1&gt;" style="rounded=1;whiteSpace=wrap;html=1;" parent="1" vertex="1">
          <mxGeometry x="910" y="955" width="320" height="40" as="geometry" />
        </mxCell>
        <mxCell id="ntjXVA0GMSHedG_WwRod-44" style="edgeStyle=orthogonalEdgeStyle;rounded=0;orthogonalLoop=1;jettySize=auto;html=1;entryX=1;entryY=0.5;entryDx=0;entryDy=0;" parent="1" source="ntjXVA0GMSHedG_WwRod-17" target="ntjXVA0GMSHedG_WwRod-18" edge="1">
          <mxGeometry relative="1" as="geometry" />
        </mxCell>
        <mxCell id="ntjXVA0GMSHedG_WwRod-45" style="edgeStyle=orthogonalEdgeStyle;rounded=0;orthogonalLoop=1;jettySize=auto;html=1;entryX=0;entryY=0.5;entryDx=0;entryDy=0;" parent="1" source="ntjXVA0GMSHedG_WwRod-17" target="ntjXVA0GMSHedG_WwRod-16" edge="1">
          <mxGeometry relative="1" as="geometry" />
        </mxCell>
        <mxCell id="ntjXVA0GMSHedG_WwRod-17" value="&lt;h1&gt;match trxID?&lt;/h1&gt;" style="rhombus;whiteSpace=wrap;html=1;" parent="1" vertex="1">
          <mxGeometry x="630" y="930" width="170" height="90" as="geometry" />
        </mxCell>
        <mxCell id="ntjXVA0GMSHedG_WwRod-54" style="edgeStyle=orthogonalEdgeStyle;rounded=0;orthogonalLoop=1;jettySize=auto;html=1;entryX=0.25;entryY=1;entryDx=0;entryDy=0;" parent="1" source="ntjXVA0GMSHedG_WwRod-18" target="ntjXVA0GMSHedG_WwRod-2" edge="1">
          <mxGeometry relative="1" as="geometry">
            <Array as="points">
              <mxPoint x="110" y="975" />
              <mxPoint x="110" y="568" />
              <mxPoint x="111" y="568" />
            </Array>
          </mxGeometry>
        </mxCell>
        <mxCell id="ntjXVA0GMSHedG_WwRod-18" value="&lt;h1&gt;Sent Order Cancellation Mail&lt;/h1&gt;" style="rounded=1;whiteSpace=wrap;html=1;" parent="1" vertex="1">
          <mxGeometry x="130" y="955" width="340" height="40" as="geometry" />
        </mxCell>
        <mxCell id="ntjXVA0GMSHedG_WwRod-47" style="edgeStyle=orthogonalEdgeStyle;rounded=0;orthogonalLoop=1;jettySize=auto;html=1;entryX=1;entryY=0.5;entryDx=0;entryDy=0;" parent="1" source="ntjXVA0GMSHedG_WwRod-19" target="ntjXVA0GMSHedG_WwRod-20" edge="1">
          <mxGeometry relative="1" as="geometry" />
        </mxCell>
        <mxCell id="ntjXVA0GMSHedG_WwRod-19" value="&lt;h1&gt;Product On Delivery&lt;/h1&gt;" style="rounded=1;whiteSpace=wrap;html=1;" parent="1" vertex="1">
          <mxGeometry x="950" y="1070" width="240" height="40" as="geometry" />
        </mxCell>
        <mxCell id="ntjXVA0GMSHedG_WwRod-49" style="edgeStyle=orthogonalEdgeStyle;rounded=0;orthogonalLoop=1;jettySize=auto;html=1;entryX=0.529;entryY=-0.085;entryDx=0;entryDy=0;entryPerimeter=0;" parent="1" source="ntjXVA0GMSHedG_WwRod-20" target="ntjXVA0GMSHedG_WwRod-21" edge="1">
          <mxGeometry relative="1" as="geometry" />
        </mxCell>
        <mxCell id="ntjXVA0GMSHedG_WwRod-20" value="&lt;h1&gt;Customer Validations&lt;/h1&gt;" style="rounded=1;whiteSpace=wrap;html=1;" parent="1" vertex="1">
          <mxGeometry x="600" y="1070" width="270" height="40" as="geometry" />
        </mxCell>
        <mxCell id="ntjXVA0GMSHedG_WwRod-50" style="edgeStyle=orthogonalEdgeStyle;rounded=0;orthogonalLoop=1;jettySize=auto;html=1;entryX=0.5;entryY=0;entryDx=0;entryDy=0;" parent="1" source="ntjXVA0GMSHedG_WwRod-21" target="ntjXVA0GMSHedG_WwRod-22" edge="1">
          <mxGeometry relative="1" as="geometry" />
        </mxCell>
        <mxCell id="ntjXVA0GMSHedG_WwRod-21" value="&lt;h1&gt;Check Invoice &amp;amp; Match OTP&lt;/h1&gt;" style="rounded=1;whiteSpace=wrap;html=1;" parent="1" vertex="1">
          <mxGeometry x="555" y="1170" width="340" height="40" as="geometry" />
        </mxCell>
        <mxCell id="ntjXVA0GMSHedG_WwRod-51" style="edgeStyle=orthogonalEdgeStyle;rounded=0;orthogonalLoop=1;jettySize=auto;html=1;" parent="1" source="ntjXVA0GMSHedG_WwRod-22" target="ntjXVA0GMSHedG_WwRod-23" edge="1">
          <mxGeometry relative="1" as="geometry" />
        </mxCell>
        <mxCell id="ntjXVA0GMSHedG_WwRod-52" style="edgeStyle=orthogonalEdgeStyle;rounded=0;orthogonalLoop=1;jettySize=auto;html=1;entryX=0.46;entryY=-0.055;entryDx=0;entryDy=0;entryPerimeter=0;" parent="1" source="ntjXVA0GMSHedG_WwRod-22" target="ntjXVA0GMSHedG_WwRod-24" edge="1">
          <mxGeometry relative="1" as="geometry" />
        </mxCell>
        <mxCell id="ntjXVA0GMSHedG_WwRod-22" value="&lt;h1&gt;has paid ?&lt;/h1&gt;" style="rhombus;whiteSpace=wrap;html=1;" parent="1" vertex="1">
          <mxGeometry x="640" y="1280" width="170" height="90" as="geometry" />
        </mxCell>
        <mxCell id="ntjXVA0GMSHedG_WwRod-57" style="edgeStyle=orthogonalEdgeStyle;rounded=0;orthogonalLoop=1;jettySize=auto;html=1;entryX=1;entryY=0.5;entryDx=0;entryDy=0;" parent="1" source="ntjXVA0GMSHedG_WwRod-23" target="ntjXVA0GMSHedG_WwRod-24" edge="1">
          <mxGeometry relative="1" as="geometry">
            <Array as="points">
              <mxPoint x="1080" y="1500" />
            </Array>
          </mxGeometry>
        </mxCell>
        <mxCell id="ntjXVA0GMSHedG_WwRod-23" value="&lt;h1&gt;Take Payment&lt;/h1&gt;" style="rounded=1;whiteSpace=wrap;html=1;" parent="1" vertex="1">
          <mxGeometry x="950" y="1305" width="240" height="40" as="geometry" />
        </mxCell>
        <mxCell id="ntjXVA0GMSHedG_WwRod-53" style="edgeStyle=orthogonalEdgeStyle;rounded=0;orthogonalLoop=1;jettySize=auto;html=1;entryX=0.5;entryY=0;entryDx=0;entryDy=0;" parent="1" source="ntjXVA0GMSHedG_WwRod-24" target="ntjXVA0GMSHedG_WwRod-25" edge="1">
          <mxGeometry relative="1" as="geometry" />
        </mxCell>
        <mxCell id="ntjXVA0GMSHedG_WwRod-24" value="&lt;h1&gt;Product Handover&lt;/h1&gt;" style="rounded=1;whiteSpace=wrap;html=1;" parent="1" vertex="1">
          <mxGeometry x="615" y="1480" width="240" height="40" as="geometry" />
        </mxCell>
        <mxCell id="ntjXVA0GMSHedG_WwRod-25" value="" style="ellipse;html=1;shape=endState;fillColor=#000000;strokeColor=#ff0000;" parent="1" vertex="1">
          <mxGeometry x="720" y="1610" width="30" height="30" as="geometry" />
        </mxCell>
        <mxCell id="ntjXVA0GMSHedG_WwRod-59" value="&lt;h2 style=&quot;line-height: 0%;&quot;&gt;&lt;font style=&quot;font-size: 24px;&quot; face=&quot;Comic Sans MS&quot;&gt;No&lt;/font&gt;&lt;/h2&gt;" style="edgeLabel;html=1;align=center;verticalAlign=middle;resizable=0;points=[];" parent="1" vertex="1" connectable="0">
          <mxGeometry x="660" y="200" as="geometry">
            <mxPoint x="-232" y="-6" as="offset" />
          </mxGeometry>
        </mxCell>
        <mxCell id="ntjXVA0GMSHedG_WwRod-60" value="&lt;h2 style=&quot;line-height: 0%;&quot;&gt;&lt;font style=&quot;font-size: 24px;&quot; face=&quot;Comic Sans MS&quot;&gt;update&lt;/font&gt;&lt;/h2&gt;" style="edgeLabel;html=1;align=center;verticalAlign=middle;resizable=0;points=[];" parent="1" vertex="1" connectable="0">
          <mxGeometry x="680" y="160" as="geometry">
            <mxPoint x="-2" y="186" as="offset" />
          </mxGeometry>
        </mxCell>
        <mxCell id="ntjXVA0GMSHedG_WwRod-61" value="&lt;h2 style=&quot;line-height: 0%;&quot;&gt;&lt;font style=&quot;font-size: 24px;&quot; face=&quot;Comic Sans MS&quot;&gt;delete&lt;/font&gt;&lt;/h2&gt;" style="edgeLabel;html=1;align=center;verticalAlign=middle;resizable=0;points=[];" parent="1" vertex="1" connectable="0">
          <mxGeometry x="390" y="240" as="geometry">
            <mxPoint x="-2" y="186" as="offset" />
          </mxGeometry>
        </mxCell>
        <mxCell id="ntjXVA0GMSHedG_WwRod-62" value="&lt;h2 style=&quot;line-height: 0%;&quot;&gt;&lt;font style=&quot;font-size: 24px;&quot; face=&quot;Comic Sans MS&quot;&gt;cash on delivery&lt;/font&gt;&lt;/h2&gt;" style="edgeLabel;html=1;align=center;verticalAlign=middle;resizable=0;points=[];" parent="1" vertex="1" connectable="0">
          <mxGeometry x="870" y="600" as="geometry">
            <mxPoint x="-2" y="186" as="offset" />
          </mxGeometry>
        </mxCell>
        <mxCell id="ntjXVA0GMSHedG_WwRod-63" value="&lt;h2 style=&quot;line-height: 0%;&quot;&gt;&lt;font style=&quot;font-size: 24px;&quot; face=&quot;Comic Sans MS&quot;&gt;e-payment&lt;/font&gt;&lt;/h2&gt;" style="edgeLabel;html=1;align=center;verticalAlign=middle;resizable=0;points=[];" parent="1" vertex="1" connectable="0">
          <mxGeometry x="580" y="620" as="geometry">
            <mxPoint x="-2" y="186" as="offset" />
          </mxGeometry>
        </mxCell>
        <mxCell id="ntjXVA0GMSHedG_WwRod-64" value="&lt;h2 style=&quot;line-height: 0%;&quot;&gt;&lt;font style=&quot;font-size: 24px;&quot; face=&quot;Comic Sans MS&quot;&gt;match&lt;/font&gt;&lt;/h2&gt;" style="edgeLabel;html=1;align=center;verticalAlign=middle;resizable=0;points=[];" parent="1" vertex="1" connectable="0">
          <mxGeometry x="855" y="770" as="geometry">
            <mxPoint x="-2" y="186" as="offset" />
          </mxGeometry>
        </mxCell>
        <mxCell id="ntjXVA0GMSHedG_WwRod-65" value="&lt;h2 style=&quot;line-height: 0%;&quot;&gt;&lt;font style=&quot;font-size: 24px;&quot; face=&quot;Comic Sans MS&quot;&gt;not match&lt;/font&gt;&lt;/h2&gt;" style="edgeLabel;html=1;align=center;verticalAlign=middle;resizable=0;points=[];" parent="1" vertex="1" connectable="0">
          <mxGeometry x="555" y="770" as="geometry">
            <mxPoint x="-2" y="186" as="offset" />
          </mxGeometry>
        </mxCell>
        <mxCell id="ntjXVA0GMSHedG_WwRod-66" value="&lt;h2 style=&quot;line-height: 0%;&quot;&gt;&lt;font style=&quot;font-size: 30px;&quot; face=&quot;Comic Sans MS&quot;&gt;no&lt;/font&gt;&lt;/h2&gt;" style="edgeLabel;html=1;align=center;verticalAlign=middle;resizable=0;points=[];" parent="1" vertex="1" connectable="0">
          <mxGeometry x="880" y="1120" as="geometry">
            <mxPoint x="-2" y="186" as="offset" />
          </mxGeometry>
        </mxCell>
        <mxCell id="ntjXVA0GMSHedG_WwRod-67" value="&lt;h2 style=&quot;line-height: 0%;&quot;&gt;&lt;font style=&quot;font-size: 30px;&quot; face=&quot;Comic Sans MS&quot;&gt;yes&lt;/font&gt;&lt;/h2&gt;" style="edgeLabel;html=1;align=center;verticalAlign=middle;resizable=0;points=[];" parent="1" vertex="1" connectable="0">
          <mxGeometry x="750" y="1240" as="geometry">
            <mxPoint x="-2" y="186" as="offset" />
          </mxGeometry>
        </mxCell>
      </root>
    </mxGraphModel>
  </diagram>
</mxfile>
